# https://github.com/mikedh/trimesh
v -0.00240294 0.90487444 -1.58054309 0.89803922 0.44705882 0.04705882
v 0.86796651 0.00053674 1.41845854 0.38039216 0.06666667 0.78823529
v -0.17571745 -1.54609500 -0.37937028 0.40392157 0.31764706 0.46274510
v -0.95723986 -0.85175561 -1.13269050 0.67843137 0.92156863 0.53725490
v 0.32439697 1.57940732 0.62394918 0.39607843 0.40000000 0.40392157
v -0.11226278 0.94734964 -1.56460769 0.44705882 0.86274510 0.86666667
v -1.01441152 -0.49280395 -1.18953710 0.08627451 0.73725490 0.27058824
v 1.29153674 -0.83569403 -0.54216500 0.05490196 0.23137255 0.63137255
v 0.65462506 1.40077572 0.61402214 0.25882353 0.18823529 0.45490196
v 1.23751906 -0.15832137 0.98651313 0.81568627 0.65098039 0.42352941
v -0.87816649 0.94676031 -0.83454383 0.20784314 0.79215686 0.94509804
v -1.48402458 0.22629880 0.71638051 0.49411765 0.24313725 0.58039216
v -0.63365479 -1.54740659 -0.12968489 0.82352941 0.22352941 0.33333333
v 0.77635399 0.36082173 1.22421775 0.34901961 0.86666667 0.09019608
v 0.49931169 -1.54831093 0.38162615 0.21176471 0.86666667 0.59607843
v -1.25413633 -0.29360774 1.05108573 0.16078431 0.53333333 0.90980392
v -1.23952563 0.68678359 -0.82498436 0.98823529 0.72549020 0.04705882
v -0.68572182 1.42664823 0.73991957 0.69019608 0.25882353 0.92156863
v 1.27186550 -0.53603669 0.66557269 0.13725490 0.61568627 0.60392157
v -1.11620286 -1.01288227 -0.21662962 0.59607843 0.69019608 0.46666667
v 0.44298498 -0.77356229 -1.33151669 0.47058824 0.64313725 0.90588235
v -0.11955206 1.27864832 -0.71221185 0.41568627 0.36078431 0.18039216
v 0.52070696 1.14320515 -0.95163389 0.45490196 0.85098039 0.82352941
v 1.08624108 -0.65418947 -0.95527257 0.98823529 0.52549020 0.28627451
v -0.67351381 -1.51889645 -0.39507718 0.27450980 0.21960784 0.37647059
v 0.10317672 -0.86876043 -1.49744155 0.19215686 0.96862745 0.54901961
v -1.48716710 0.31505597 -0.58812659 0.67843137 0.70196078 0.96470588
v -1.67492436 0.04429773 -0.14057620 0.96470588 0.78039216 0.22352941
v -1.67826847 0.10572308 0.44302230 0.33725490 0.19607843 0.32941176
v -0.61606341 -0.88139796 1.29055780 0.60784314 0.36470588 0.67058824
v -0.23040056 1.49251858 0.78726705 0.21176471 0.01568627 0.72156863
v 0.88624106 -1.18006082 0.41590007 0.84313725 0.07058824 0.34509804
v -0.04742285 0.30576304 1.44087445 0.35294118 0.26274510 0.61176471
v 1.44714182 -0.01867808 -0.50072817 0.03921569 0.12549020 0.10588235
v -0.27755424 -1.17299652 -1.12839123 0.23529412 0.44313725 0.63137255
v 1.20573353 0.24941546 0.91141293 0.06274510 0.27058824 0.39607843
v 1.39644102 -0.68188577 -0.00238365 0.94901961 0.44313725 0.43529412
v 1.45630571 0.00594688 0.35641842 0.44313725 0.77254902 0.36470588
v -0.69851876 -0.88434014 -1.23264875 0.54117647 0.86666667 0.77254902
v -0.71311428 1.17320864 1.00472164 0.97254902 0.22352941 0.19215686
v -0.75964850 -1.18525764 -0.83341764 0.21176471 0.22745098 0.30196078
v 0.99569904 0.35923644 -1.38396609 0.74117647 0.04705882 0.04313725
v 0.20111700 -1.27941775 -1.04063269 0.21176471 0.60392157 0.38039216
v 0.06325548 -1.02431695 -1.38608579 0.34509804 0.60784314 0.55686275
v -1.05369457 1.11398273 -0.07618191 0.10588235 0.05098039 0.80392157
v -1.54117856 0.49249484 0.15154751 0.33725490 0.38431373 0.81568627
v 0.27133878 -1.39194317 0.74215707 0.64313725 0.59607843 0.71372549
v 0.47687717 -1.19190295 1.01836992 0.78039216 0.70588235 0.18823529
v -1.54626999 -0.28934096 -0.41729219 0.93333333 0.38823529 0.47058824
v 0.64842755 1.50596561 0.30178532 0.40784314 0.09803922 0.26666667
v -0.35279916 0.99649445 1.20573692 0.94117647 0.38823529 0.72549020
v -1.10808764 -0.83921540 -0.91358139 0.74901961 0.11764706 0.51372549
v 0.00817273 -0.90729850 1.30033523 0.57647059 0.39215686 0.79607843
v 0.18626775 0.16689411 -1.53408256 0.43921569 0.53725490 0.46274510
v 0.33326289 1.11199455 0.98965286 0.27450980 0.91372549 0.45098039
v 0.14342527 1.61750503 0.17477957 0.39215686 0.49411765 0.24313725
v -1.56854586 -0.25724260 0.32570878 0.01176471 0.30588235 0.05882353
v 1.05027989 -1.31143200 -0.18417081 0.83921569 0.96078431 0.40392157
v -0.02369608 -0.34140785 1.56383803 0.58431373 0.13725490 0.85098039
v -1.35881525 -0.11758599 -0.91486845 0.07450980 0.69803922 0.86274510
v -1.33641393 0.93285713 0.28388011 0.81568627 0.35686275 0.65098039
v -1.32631098 -0.55976978 -0.79752044 0.60000000 0.51764706 0.16470588
v 0.95511881 0.69741827 -1.09657360 0.03137255 0.46274510 0.08235294
v 1.11017194 0.86092770 0.36296071 0.19215686 0.80784314 0.79215686
v -0.86011941 0.26352211 -1.19824325 0.56862745 0.51764706 0.03529412
v 1.48472677 0.55548200 -0.17291143 0.09803922 0.09803922 0.25882353
v -0.54031114 1.48742353 0.28845324 0.98039216 0.15294118 0.29411765
v 0.79075750 -1.26540774 -0.55222028 0.27450980 0.44313725 0.21176471
v 0.56880214 -0.97546858 1.14499123 0.47843137 0.75294118 0.66666667
v 1.18868855 -1.15224723 -0.23911895 0.83137255 0.67843137 0.90980392
v 0.06455082 0.79068497 -1.61974658 0.60392157 0.98431373 0.51764706
v 0.11020015 0.62773476 -1.62677897 0.66274510 0.72941176 0.30588235
v 0.76690781 0.39864349 -1.45916121 0.64705882 0.67058824 0.82745098
v 1.29300097 0.71984522 -0.46960247 0.23921569 0.69019608 0.72941176
v 1.29042495 0.39071594 -0.90054025 0.00392157 0.98039216 0.16862745
v 0.70548718 -0.37103621 1.29094110 0.61568627 0.41568627 0.79215686
v 0.48384422 -1.55719541 0.00960171 0.02352941 0.70588235 0.73333333
v 1.01364992 0.01334254 1.28981678 0.65490196 0.17647059 0.54117647
v -1.11900681 0.99046890 0.61377708 0.98823529 0.15686275 0.71764706
v 0.72257824 1.27347809 -0.35587339 0.56862745 0.93333333 0.34509804
v -0.63816605 -0.35616962 1.46283002 0.21568627 0.51372549 0.64705882
v 1.52359562 0.38369471 -0.00576392 0.81960784 0.02745098 0.29411765
v -0.21275363 0.80837256 -1.44234775 0.63529412 0.87058824 0.80392157
v 0.12544446 -1.60085581 0.28756191 0.38039216 0.63921569 0.08627451
v -0.52375586 -1.28199291 0.60191872 0.85490196 0.76470588 0.37254902
v -0.90448948 0.46357754 1.20454793 0.37647059 0.34117647 0.82745098
v 0.31300983 0.81753342 -1.42718184 0.29803922 0.64313725 0.90588235
v -1.18581695 -0.82035775 0.66970089 0.06274510 0.70980392 0.36470588
v -0.51149696 -1.67984210 -0.31118935 0.43921569 0.71372549 0.82352941
v -0.26853725 -0.62643246 -1.42820320 0.04313725 0.90588235 0.53725490
v -0.95225355 -0.78281919 1.15704926 0.93333333 0.40392157 0.65098039
v 0.98816576 0.03502437 -1.26415709 0.72156863 0.65882353 0.18823529
v -1.33851578 0.81307869 -0.45183634 0.02745098 0.56470588 0.59607843
v -0.03563892 1.01432116 -1.42425096 0.98823529 0.36862745 0.36470588
f 20 85 88
f 90 39 7
f 21 90 54
f 65 83 54
f 54 90 65
f 65 90 7
f 56 80 22
f 53 85 47
f 57 20 88
f 88 16 57
f 46 28 57
f 19 76 32
f 19 37 38
f 32 37 19
f 69 76 53
f 32 76 69
f 10 19 38
f 76 19 10
f 70 37 32
f 32 58 70
f 92 21 54
f 24 21 92
f 12 16 86
f 12 79 46
f 86 79 12
f 12 57 16
f 30 85 53
f 35 90 44
f 39 90 35
f 3 89 25
f 44 90 26
f 26 21 44
f 90 21 26
f 68 21 24
f 68 70 58
f 68 77 3
f 68 58 32
f 32 77 68
f 44 21 43
f 3 35 43
f 43 35 44
f 43 68 3
f 21 68 43
f 54 83 72
f 83 71 72
f 1 71 83
f 23 22 80
f 15 77 32
f 32 47 15
f 48 47 32
f 32 69 48
f 53 47 48
f 48 69 53
f 76 10 78
f 38 37 34
f 24 92 34
f 34 92 75
f 63 23 80
f 75 92 63
f 46 79 61
f 56 22 67
f 46 57 29
f 29 12 46
f 57 12 29
f 91 16 88
f 88 85 91
f 85 30 91
f 33 76 14
f 55 9 5
f 55 33 14
f 14 64 55
f 55 64 9
f 13 25 89
f 3 85 13
f 13 89 3
f 85 20 13
f 20 25 13
f 7 39 4
f 4 52 7
f 7 52 62
f 62 52 20
f 8 68 24
f 70 68 8
f 37 70 8
f 24 34 8
f 8 34 37
f 6 1 83
f 22 23 87
f 71 1 87
f 23 63 87
f 54 72 87
f 87 72 71
f 3 77 84
f 77 15 84
f 84 85 3
f 84 47 85
f 84 15 47
f 14 76 2
f 2 78 14
f 76 78 2
f 38 34 82
f 82 34 66
f 82 64 38
f 66 64 82
f 75 63 74
f 74 34 75
f 66 34 74
f 74 64 66
f 74 63 80
f 80 64 74
f 50 64 80
f 50 80 56
f 56 5 50
f 5 9 50
f 9 64 50
f 36 64 14
f 14 78 36
f 36 78 10
f 36 10 38
f 38 64 36
f 27 17 65
f 27 28 46
f 93 27 46
f 17 27 93
f 16 91 81
f 81 91 30
f 86 16 81
f 81 33 86
f 81 30 53
f 40 79 86
f 52 4 41
f 41 25 20
f 20 52 41
f 41 4 39
f 39 35 41
f 41 35 3
f 3 25 41
f 49 62 20
f 20 57 49
f 49 57 28
f 28 27 49
f 22 87 94
f 94 87 1
f 1 6 94
f 83 22 94
f 94 6 83
f 73 87 63
f 73 92 54
f 54 87 73
f 60 65 7
f 60 27 65
f 7 62 60
f 62 49 60
f 60 49 27
f 46 61 45
f 45 93 46
f 45 61 79
f 79 67 45
f 45 67 22
f 59 81 53
f 33 81 59
f 53 76 59
f 76 33 59
f 86 33 51
f 51 40 86
f 33 55 51
f 18 67 79
f 79 40 18
f 42 63 92
f 92 73 42
f 42 73 63
f 17 93 11
f 93 45 11
f 11 45 22
f 11 22 83
f 83 65 11
f 65 17 11
f 31 18 40
f 31 51 55
f 40 51 31
f 31 55 5
f 31 5 56
f 56 67 31
f 67 18 31

